<?xml version="1.0" standalone="no"?>
<!DOCTYPE svg PUBLIC "-//W3C//DTD SVG 20010904//EN"
 "http://www.w3.org/TR/2001/REC-SVG-20010904/DTD/svg10.dtd">
<svg version="1.0" xmlns="http://www.w3.org/2000/svg"
 width="700.000000pt" height="700.000000pt" viewBox="0 0 700.000000 700.000000"
 preserveAspectRatio="xMidYMid meet">
<metadata>
Created by potrace 1.14, written by Peter Selinger 2001-2017
</metadata>
<g transform="translate(0.000000,700.000000) scale(0.100000,-0.100000)"
fill="#000000" stroke="none">
<path d="M3329 6996 c-2 -2 -47 -6 -99 -10 -659 -43 -1338 -303 -1870 -715
-181 -140 -414 -363 -535 -512 -11 -13 -38 -47 -61 -74 -358 -441 -624 -1038
-713 -1605 -39 -246 -46 -338 -45 -590 0 -241 9 -356 45 -575 79 -477 268
-958 532 -1350 57 -85 165 -234 177 -245 3 -3 24 -27 45 -55 128 -159 346
-372 525 -512 98 -76 209 -156 240 -173 14 -7 27 -16 30 -19 12 -15 185 -115
310 -178 150 -77 357 -163 525 -216 107 -34 325 -90 395 -102 19 -3 60 -10 90
-15 30 -5 78 -12 105 -16 28 -3 57 -8 66 -9 128 -24 735 -24 812 0 7 2 37 6
67 9 165 16 447 82 660 155 1047 355 1865 1187 2199 2236 58 181 86 298 126
520 35 195 50 582 32 830 -47 677 -322 1375 -753 1910 -112 139 -135 165 -270
300 -445 443 -994 753 -1612 910 -118 29 -350 71 -447 79 -38 4 -86 9 -105 12
-38 6 -465 15 -471 10z"/>
</g>
</svg>
